<svg width="32" height="27" viewBox="0 0 32 27" fill="none" xmlns="http://www.w3.org/2000/svg">
<path fill-rule="evenodd" clip-rule="evenodd" d="M29.8453 0C28.3039 0 26.8353 0.987291 25.8073 2.71552C23.9917 5.7675 21.1897 10.4771 20.3642 11.8645C20.2137 12.1172 19.9989 12.2621 19.7731 12.2621H19.7541C19.3294 12.2621 18.9837 11.7599 18.9629 11.1292V24.0138C18.9812 24.5493 19.1306 25.0572 19.3839 25.4377C19.655 25.8454 20.0227 26.0741 20.4058 26.0741H21.6352C22.3419 26.0741 23.0157 25.6211 23.4868 24.8291C25.0944 22.1274 28.8351 15.8395 29.8068 14.2058C29.9537 13.9588 30.1899 13.8126 30.4414 13.8126H31.9999V0H29.846H29.8453Z" fill="#212121"/>
<path fill-rule="evenodd" clip-rule="evenodd" d="M4.11697 0C1.84301 0 0 2.52695 0 5.64474V13.4789H5.10528C5.51135 13.4789 5.84995 13.7986 5.92593 14.2222V0H4.11632H4.11697Z" fill="#212121"/>
<path d="M16.7571 0C15.231 0 13.7771 0.987244 12.7593 2.71539C10.9722 5.74958 8.21938 10.4224 7.38457 11.84C7.22646 12.1084 7.00049 12.2615 6.76362 12.2615H6.75938C6.53826 12.2615 6.32622 12.1279 6.16992 11.891C6.01362 11.6535 5.92578 11.3316 5.92578 10.9964V14.5749C5.92578 14.6549 5.92578 14.6971 5.92578 14.7608V23.9011C5.92578 24.4776 6.07663 25.0301 6.345 25.4377C6.61338 25.8454 6.97747 26.0741 7.3567 26.0741H8.6277C9.32741 26.0741 9.9944 25.6211 10.4609 24.8291C12.082 22.0766 15.8962 15.6019 16.7692 14.1188C16.8843 13.9241 17.0479 13.8126 17.2199 13.8126H18.36C18.5206 13.8126 18.6745 13.9096 18.7877 14.0816C18.8895 14.2366 18.9513 14.4407 18.9628 14.6575V0H16.7559H16.7571Z" fill="#212121"/>
</svg>
