<svg width="5324" height="872" viewBox="0 0 5324 872" fill="none" xmlns="http://www.w3.org/2000/svg">
<path fill-rule="evenodd" clip-rule="evenodd" d="M1005.61 1.74304C953.225 1.74304 903.312 34.6277 868.374 92.1915C806.669 193.846 711.441 350.715 683.386 396.925C678.27 405.341 670.97 410.167 663.296 410.167H662.651C648.218 410.167 636.468 393.442 635.761 372.435V801.593C636.385 819.431 641.459 836.346 650.069 849.021C659.282 862.599 671.781 870.217 684.8 870.217H726.581C750.601 870.217 773.498 855.128 789.512 828.749C844.145 738.762 971.277 529.324 1004.3 474.908C1009.29 466.682 1017.32 461.813 1025.87 461.813H1078.84V1.74304H1005.63H1005.61Z" fill="#212121"/>
<path fill-rule="evenodd" clip-rule="evenodd" d="M130.729 1.74304C58.5224 1.74304 0 87.9944 0 194.413V461.813H162.112C175.006 461.813 185.758 472.726 188.17 487.185V1.74304H130.708H130.729Z" fill="#212121"/>
<path d="M559.998 1.74304C507.611 1.74304 457.698 34.6277 422.76 92.1915C361.409 193.259 266.908 348.91 238.25 396.128C232.822 405.068 225.065 410.167 216.933 410.167H216.787C209.197 410.167 201.918 405.718 196.552 397.828C191.186 389.916 188.171 379.192 188.171 368.028V487.227C188.171 489.892 188.171 491.298 188.171 493.418V797.879C188.171 817.081 193.349 835.485 202.562 849.063C211.775 862.641 224.274 870.258 237.293 870.258H280.925C304.945 870.258 327.843 855.17 343.856 828.791C399.509 737.104 530.446 521.434 560.414 472.033C564.366 465.549 569.981 461.834 575.887 461.834H615.027C620.538 461.834 625.82 465.066 629.709 470.795C633.203 475.958 635.325 482.757 635.72 489.976V1.74304H559.957H559.998Z" fill="#212121"/>
<path d="M2127.33 256.992H2274.12L2101.23 855.232H1951.33L1839.17 492.703L1727.03 855.232H1577.11L1402.85 256.992H1564.59L1666.08 624.305L1774.05 256.992H1918.82L2026.8 625.606L2127.33 256.992Z" fill="#212121"/>
<path d="M2854.16 780.459C2793.29 841.486 2718.98 871.999 2631.24 871.999C2543.5 871.999 2469.4 841.486 2408.92 780.459C2348.44 719.433 2318.2 644.661 2318.2 556.122C2318.2 467.583 2348.44 392.811 2408.92 331.784C2469.4 270.758 2543.5 240.266 2631.24 240.266C2718.98 240.266 2793.29 270.779 2854.16 331.784C2915.03 392.811 2945.46 467.583 2945.46 556.122C2945.46 644.661 2915.03 719.433 2854.16 780.459ZM2516.84 674.565C2547.26 705.666 2585.4 721.238 2631.26 721.238C2677.12 721.238 2715.45 705.687 2746.27 674.565C2777.09 643.464 2792.52 603.969 2792.52 556.122C2792.52 508.274 2777.11 468.779 2746.27 437.678C2715.45 406.578 2677.1 391.006 2631.26 391.006C2585.42 391.006 2547.26 406.557 2516.84 437.678C2486.41 468.779 2471.19 508.274 2471.19 556.122C2471.19 603.969 2486.41 643.464 2516.84 674.565Z" fill="#212121"/>
<path d="M3206.31 359.884C3220.54 321.606 3244.06 292.877 3276.86 273.738C3309.65 254.599 3346.21 245.029 3386.54 245.029V417.322C3339.89 411.74 3298.19 421.31 3261.45 446.031C3224.7 470.752 3206.31 511.842 3206.31 569.28V855.231H3053.35V256.991H3206.31V359.884Z" fill="#212121"/>
<path d="M4022.09 855.232H3844.24L3628.43 583.425V855.232H3475.47V17.6919H3628.43V521.245L3832.38 256.992H4014.98L3776.67 552.534L4022.09 855.232Z" fill="#212121"/>
<path d="M4199.95 426.892C4199.95 442.841 4210.43 455.81 4231.37 465.779C4252.31 475.747 4277.81 484.519 4307.84 492.095C4337.87 499.671 4367.92 509.24 4397.95 520.803C4427.98 532.366 4453.48 551.715 4474.42 578.829C4495.37 605.942 4505.85 639.855 4505.85 680.526C4505.85 741.951 4483.12 789.211 4437.68 822.305C4392.23 855.4 4335.5 871.957 4267.54 871.957C4145.81 871.957 4062.81 824.488 4018.54 729.569L4151.32 654.189C4168.71 706.044 4207.45 731.962 4267.52 731.962C4322.07 731.962 4349.33 714.816 4349.33 680.505C4349.33 664.556 4338.85 651.586 4317.91 641.618C4296.96 631.65 4271.47 622.668 4241.44 614.693C4211.41 606.719 4181.35 596.751 4151.32 584.789C4121.29 572.827 4095.8 553.877 4074.85 527.959C4053.91 502.042 4043.43 469.535 4043.43 430.439C4043.43 371.406 4064.97 324.943 4108.04 291.052C4151.12 257.16 4204.69 240.203 4268.7 240.203C4316.93 240.203 4360.79 251.179 4400.32 273.109C4439.84 295.039 4471.07 326.35 4493.99 367.041L4363.56 438.833C4344.59 398.163 4312.96 377.807 4268.7 377.807C4248.94 377.807 4232.53 382.193 4219.5 390.965C4206.46 399.737 4199.93 411.698 4199.93 426.85L4199.95 426.892Z" fill="#212121"/>
<path d="M4925.59 405.361H4791.6V654.231C4791.6 674.965 4796.73 690.117 4807.01 699.707C4817.28 709.277 4832.3 714.67 4852.07 715.866C4871.83 717.062 4896.35 716.873 4925.59 715.258V855.253C4820.46 867.215 4746.34 857.247 4703.27 825.349C4660.18 793.45 4638.66 736.411 4638.66 654.252V405.382H4535.5V256.992H4638.66V136.156L4791.62 89.484V256.992H4925.61V405.361H4925.59Z" fill="#212121"/>
<path d="M5324 149.314C5240.21 142.934 5198.3 176.826 5198.3 251.011V256.992H5324V405.361H5198.3V855.232H5045.34V405.361H4959.97V256.992H5045.34V251.011C5045.34 166.459 5068.65 102.243 5115.3 58.3828C5161.95 14.5016 5231.49 -4.63735 5323.98 0.944855V149.314H5324Z" fill="#212121"/>
</svg>
