<svg width="18" height="18" viewBox="0 0 18 18" fill="none" xmlns="http://www.w3.org/2000/svg">
<path d="M9.00065 8.97266C7.80898 8.97266 6.83398 8.59349 6.07565 7.83516C5.31732 7.07682 4.93815 6.10182 4.93815 4.91016C4.93815 3.71849 5.31732 2.74349 6.07565 1.98516C6.83398 1.22682 7.80898 0.847656 9.00065 0.847656C10.1923 0.847656 11.1673 1.22682 11.9257 1.98516C12.684 2.74349 13.0632 3.71849 13.0632 4.91016C13.0632 6.10182 12.684 7.07682 11.9257 7.83516C11.1673 8.59349 10.1923 8.97266 9.00065 8.97266ZM0.333984 17.6664V15.1206C0.333984 14.4345 0.505512 13.8477 0.848568 13.3602C1.19162 12.8727 1.63398 12.5025 2.17565 12.2497C3.38537 11.7081 4.54544 11.3018 5.65586 11.031C6.76628 10.7602 7.88121 10.6247 9.00065 10.6247C10.1201 10.6247 11.2305 10.7647 12.3319 11.0445C13.4333 11.3244 14.5888 11.7261 15.7986 12.2497C16.3583 12.5025 16.8097 12.8727 17.1527 13.3602C17.4958 13.8477 17.6673 14.4345 17.6673 15.1206V17.6664H0.333984ZM1.95898 16.0414H16.0423V15.1206C16.0423 14.8317 15.9566 14.5563 15.785 14.2945C15.6135 14.0327 15.4013 13.8386 15.1486 13.7122C13.993 13.1525 12.9368 12.7688 11.9798 12.5612C11.0229 12.3536 10.0298 12.2497 9.00065 12.2497C7.97148 12.2497 6.9694 12.3536 5.9944 12.5612C5.0194 12.7688 3.96315 13.1525 2.82565 13.7122C2.57287 13.8386 2.36523 14.0327 2.20273 14.2945C2.04023 14.5563 1.95898 14.8317 1.95898 15.1206V16.0414ZM9.00065 7.34766C9.70482 7.34766 10.2871 7.11745 10.7475 6.65703C11.2079 6.19661 11.4382 5.61432 11.4382 4.91016C11.4382 4.20599 11.2079 3.6237 10.7475 3.16328C10.2871 2.70287 9.70482 2.47266 9.00065 2.47266C8.29648 2.47266 7.71419 2.70287 7.25378 3.16328C6.79336 3.6237 6.56315 4.20599 6.56315 4.91016C6.56315 5.61432 6.79336 6.19661 7.25378 6.65703C7.71419 7.11745 8.29648 7.34766 9.00065 7.34766Z" fill="white"/>
</svg>
