<svg width="17" height="16" viewBox="0 0 17 16" fill="none" xmlns="http://www.w3.org/2000/svg">
<path d="M1.275 16C0.935 16 0.6375 15.8737 0.3825 15.6211C0.1275 15.3684 0 15.0737 0 14.7368V4.63158C0 4.29474 0.1275 4 0.3825 3.74737C0.6375 3.49474 0.935 3.36842 1.275 3.36842H5.1V1.26316C5.1 0.926316 5.2275 0.631579 5.4825 0.378947C5.7375 0.126316 6.035 0 6.375 0H10.625C10.965 0 11.2625 0.126316 11.5175 0.378947C11.7725 0.631579 11.9 0.926316 11.9 1.26316V3.36842H15.725C16.065 3.36842 16.3625 3.49474 16.6175 3.74737C16.8725 4 17 4.29474 17 4.63158V14.7368C17 15.0737 16.8725 15.3684 16.6175 15.6211C16.3625 15.8737 16.065 16 15.725 16H1.275ZM1.275 14.7368H15.725V4.63158H1.275V14.7368ZM6.375 3.36842H10.625V1.26316H6.375V3.36842ZM1.275 14.7368V4.63158V14.7368Z" fill="white"/>
</svg>
