<svg width="201" height="32" viewBox="0 0 201 32" fill="none" xmlns="http://www.w3.org/2000/svg">
<path fill-rule="evenodd" clip-rule="evenodd" d="M58.88 24.4713C58.88 27.1219 55.9188 28.7632 53.5826 27.4074L11.6543 3.07589C6.51463 0.0932922 0 3.70406 0 9.53531V23.9216C0 29.9119 6.83568 33.4957 11.9617 30.1929L25.2324 21.6424C26.2013 21.0182 26.4677 19.7463 25.8274 18.8017C25.187 17.8571 23.8825 17.5974 22.9136 18.2217L9.64285 26.7722C7.31284 28.2735 4.20571 26.6445 4.20571 23.9216V9.53531C4.20571 6.88474 7.16691 5.24348 9.50311 6.59921L51.4315 30.9308C56.5711 33.9134 63.0857 30.3026 63.0857 24.4713V8.74583C63.0857 3.16401 57.0661 -0.470829 51.9402 2.01588L36.9041 9.31037C35.8644 9.81479 35.4409 11.0455 35.9583 12.0591C36.4757 13.0728 37.738 13.4857 38.7778 12.9813L53.8139 5.68676C56.1438 4.55644 58.88 6.20864 58.88 8.74583V24.4713Z" fill="#4C00EE"/>
<path d="M83.1958 22.7043L87.2183 8.44521H90.4901L89.4352 14.0457L85.4127 27.6825H82.6773L83.1958 22.7043ZM81.1576 8.44521L84.036 22.6865L84.3042 27.6825H81.0861L76.1875 8.44521H81.1576ZM94.173 22.4554L96.9798 8.44521H101.968L97.0692 27.6825H93.869L94.173 22.4554ZM90.937 8.44521L94.9417 22.5976L95.496 27.6825H92.7427L88.7201 14.0635L87.7011 8.44521H90.937Z" fill="black"/>
<path d="M103.738 18.2594V17.8861C103.738 16.4756 103.94 15.1777 104.346 13.9924C104.751 12.7952 105.341 11.7581 106.116 10.881C106.89 10.0039 107.844 9.32233 108.976 8.83636C110.108 8.33853 111.408 8.08962 112.874 8.08962C114.34 8.08962 115.645 8.33853 116.789 8.83636C117.933 9.32233 118.893 10.0039 119.667 10.881C120.454 11.7581 121.05 12.7952 121.455 13.9924C121.86 15.1777 122.063 16.4756 122.063 17.8861V18.2594C122.063 19.6581 121.86 20.956 121.455 22.1531C121.05 23.3384 120.454 24.3755 119.667 25.2645C118.893 26.1416 117.939 26.8232 116.807 27.3091C115.674 27.7951 114.375 28.0381 112.909 28.0381C111.443 28.0381 110.138 27.7951 108.994 27.3091C107.862 26.8232 106.902 26.1416 106.116 25.2645C105.341 24.3755 104.751 23.3384 104.346 22.1531C103.94 20.956 103.738 19.6581 103.738 18.2594ZM108.887 17.8861V18.2594C108.887 19.0654 108.958 19.8181 109.101 20.5174C109.244 21.2167 109.471 21.8331 109.781 22.3665C110.102 22.888 110.52 23.2969 111.032 23.5933C111.545 23.8896 112.17 24.0377 112.909 24.0377C113.624 24.0377 114.238 23.8896 114.751 23.5933C115.263 23.2969 115.674 22.888 115.984 22.3665C116.294 21.8331 116.521 21.2167 116.664 20.5174C116.819 19.8181 116.896 19.0654 116.896 18.2594V17.8861C116.896 17.1038 116.819 16.3689 116.664 15.6814C116.521 14.9821 116.288 14.3657 115.966 13.8324C115.657 13.2871 115.245 12.8604 114.733 12.5522C114.22 12.2441 113.601 12.09 112.874 12.09C112.147 12.09 111.527 12.2441 111.014 12.5522C110.514 12.8604 110.102 13.2871 109.781 13.8324C109.471 14.3657 109.244 14.9821 109.101 15.6814C108.958 16.3689 108.887 17.1038 108.887 17.8861Z" fill="black"/>
<path d="M130.376 12.6411V27.6825H125.227V8.44521H130.072L130.376 12.6411ZM136.205 8.32075L136.115 13.0679C135.865 13.0323 135.561 13.0027 135.203 12.979C134.858 12.9434 134.542 12.9256 134.256 12.9256C133.529 12.9256 132.897 13.0204 132.361 13.2101C131.836 13.3879 131.395 13.6546 131.038 14.0102C130.692 14.3657 130.43 14.7984 130.251 15.3081C130.084 15.8177 129.989 16.3985 129.965 17.0504L128.928 16.7304C128.928 15.4858 129.053 14.342 129.304 13.299C129.554 12.2441 129.917 11.3255 130.394 10.5432C130.883 9.76089 131.479 9.15639 132.182 8.72968C132.885 8.30297 133.69 8.08962 134.596 8.08962C134.882 8.08962 135.174 8.11333 135.472 8.16074C135.77 8.1963 136.014 8.24964 136.205 8.32075Z" fill="black"/>
<path d="M143.785 0.355588V27.6825H138.636V0.355588H143.785ZM155.978 8.44521L147.575 17.975L143.07 22.5087L141.193 18.8106L144.768 14.2946L149.792 8.44521H155.978ZM150.632 27.6825L144.911 18.7928L148.469 15.6992L156.568 27.6825H150.632Z" fill="black"/>
<path d="M168.654 22.3665C168.654 21.999 168.546 21.6671 168.332 21.3708C168.117 21.0745 167.718 20.8019 167.134 20.553C166.562 20.2922 165.733 20.0552 164.649 19.8418C163.671 19.6284 162.76 19.3618 161.913 19.0417C161.079 18.7098 160.352 18.3128 159.732 17.8505C159.124 17.3882 158.648 16.843 158.302 16.2148C157.956 15.5747 157.784 14.8458 157.784 14.0279C157.784 13.2219 157.956 12.4634 158.302 11.7522C158.66 11.041 159.166 10.4128 159.822 9.86756C160.489 9.31047 161.3 8.87784 162.253 8.56967C163.219 8.24964 164.303 8.08962 165.507 8.08962C167.188 8.08962 168.63 8.35631 169.833 8.8897C171.049 9.42308 171.979 10.158 172.622 11.0943C173.278 12.0189 173.606 13.0738 173.606 14.2591H168.457C168.457 13.7612 168.35 13.3168 168.135 12.9256C167.932 12.5226 167.611 12.2085 167.17 11.9833C166.741 11.7463 166.18 11.6277 165.489 11.6277C164.917 11.6277 164.422 11.7285 164.005 11.93C163.588 12.1196 163.266 12.3804 163.04 12.7123C162.825 13.0323 162.718 13.3879 162.718 13.779C162.718 14.0753 162.778 14.342 162.897 14.5791C163.028 14.8043 163.236 15.0117 163.522 15.2014C163.809 15.391 164.178 15.5688 164.631 15.7348C165.096 15.8888 165.668 16.0311 166.347 16.1615C167.742 16.4459 168.987 16.8193 170.084 17.2816C171.18 17.732 172.05 18.3483 172.694 19.1306C173.338 19.9011 173.659 20.9145 173.659 22.1709C173.659 23.0243 173.469 23.8066 173.087 24.5178C172.706 25.229 172.158 25.8512 171.443 26.3846C170.727 26.9061 169.869 27.3151 168.868 27.6114C167.879 27.8959 166.764 28.0381 165.525 28.0381C163.725 28.0381 162.2 27.7181 160.948 27.078C159.708 26.438 158.767 25.626 158.123 24.6422C157.492 23.6466 157.176 22.6272 157.176 21.5842H162.056C162.08 22.2835 162.259 22.8465 162.593 23.2732C162.938 23.6999 163.374 24.0081 163.898 24.1977C164.434 24.3874 165.012 24.4822 165.632 24.4822C166.3 24.4822 166.854 24.3933 167.295 24.2155C167.736 24.0259 168.07 23.777 168.296 23.4688C168.534 23.1488 168.654 22.7813 168.654 22.3665Z" fill="black"/>
<path d="M186.478 8.44521V12.0722H175.215V8.44521H186.478ZM178.004 3.69811H183.153V21.8864C183.153 22.4435 183.224 22.8702 183.367 23.1665C183.522 23.4629 183.749 23.6703 184.047 23.7888C184.345 23.8955 184.72 23.9488 185.173 23.9488C185.495 23.9488 185.781 23.937 186.031 23.9133C186.293 23.8777 186.514 23.8422 186.693 23.8066L186.711 27.5758C186.27 27.7181 185.793 27.8307 185.28 27.9136C184.768 27.9966 184.202 28.0381 183.582 28.0381C182.45 28.0381 181.46 27.8544 180.614 27.4869C179.78 27.1076 179.136 26.5031 178.683 25.6734C178.23 24.8437 178.004 23.7533 178.004 22.402V3.69811Z" fill="black"/>
<path d="M195.971 27.6825H190.787V6.73839C190.787 5.28048 191.073 4.0537 191.645 3.05805C192.229 2.05056 193.045 1.29197 194.094 0.782293C195.155 0.260764 196.412 0 197.867 0C198.343 0 198.802 0.0355588 199.243 0.106676C199.684 0.165941 200.113 0.242985 200.53 0.337808L200.477 4.19594C200.25 4.13667 200.012 4.09519 199.762 4.07148C199.511 4.04777 199.219 4.03592 198.886 4.03592C198.266 4.03592 197.735 4.1426 197.294 4.35595C196.865 4.55745 196.538 4.8597 196.311 5.2627C196.085 5.6657 195.971 6.1576 195.971 6.73839V27.6825ZM199.833 8.44521V12.0722H187.908V8.44521H199.833Z" fill="black"/>
</svg>
